<?xml version="1.0" standalone="no"?><!DOCTYPE svg PUBLIC "-//W3C//DTD SVG 1.1//EN" "http://www.w3.org/Graphics/SVG/1.1/DTD/svg11.dtd"><svg t="1507532660616" class="icon" style="" viewBox="0 0 1024 1024" version="1.1" xmlns="http://www.w3.org/2000/svg" p-id="2575" xmlns:xlink="http://www.w3.org/1999/xlink" width="34" height="34"><defs><style type="text/css"></style></defs><path d="M451.312941 329.095529H295.815529a18.371765 18.371765 0 0 0 0 36.683295h155.497412a18.371765 18.371765 0 0 0 0-36.683295zM277.473882 499.290353c0 10.119529 8.192 18.341647 18.341647 18.341647h244.013177a18.371765 18.371765 0 0 0 0-36.683294H295.815529a18.371765 18.371765 0 0 0-18.341647 18.341647z" fill="#E52CA3" p-id="2576"></path><path d="M862.479059 545.792a18.371765 18.371765 0 0 0-9.517177 16.082824v99.870117h-668.611764V198.776471c0-15.480471 12.559059-28.039529 28.039529-28.03953h346.172235a18.371765 18.371765 0 0 0 0-36.683294H212.419765A64.722824 64.722824 0 0 0 147.696941 198.776471v538.202353c0 35.749647 28.973176 64.722824 64.722824 64.722823h225.942588v115.380706h-90.834824a18.371765 18.371765 0 0 0 0 36.683294H694.814118a18.371765 18.371765 0 0 0 0-36.683294h-83.998118v-115.380706h214.076235a64.722824 64.722824 0 0 0 64.722824-64.722823v-175.104a18.311529 18.311529 0 0 0-27.136-16.082824zM574.162824 917.082353h-99.117177v-115.380706h99.117177v115.380706z m278.799058-180.103529a28.039529 28.039529 0 0 1-28.039529 28.039529H212.449882a28.069647 28.069647 0 0 1-28.069647-28.069647v-38.550588h668.611765v38.580706z" fill="#E52CA3" p-id="2577"></path><path d="M1006.441412 251.361882l-0.180706-1.024a9.788235 9.788235 0 0 1-0.090353-0.421647l-0.120471-0.602353v0.030118c-3.102118-14.576941-12.257882-23.913412-23.552-23.913412h-2.529882a58.157176 58.157176 0 0 1-58.307765-57.886117c0-9.336471 4.216471-19.998118 5.059765-22.016a31.442824 31.442824 0 0 0-10.752-38.189177l-60.687059-33.520941-0.63247-0.301177c-12.107294-5.210353-28.732235-1.897412-37.797647 7.469177-6.987294 7.168-28.852706 25.750588-46.110118 25.750588-17.377882 0-39.393882-18.913882-46.441412-26.172235a35.056941 35.056941 0 0 0-37.888-7.770353l-62.855529 34.183529-0.662589 0.451765a31.322353 31.322353 0 0 0-10.691764 38.159059c0.843294 2.017882 5.059765 12.559059 5.059764 21.985882 0 31.924706-26.172235 57.886118-58.337882 57.886118h-2.499765c-11.565176 0-20.931765 9.788235-23.853176 24.937412-0.512 2.770824-5.029647 27.587765-5.029647 47.043764 0 19.425882 4.487529 44.212706 5.029647 47.043765 2.891294 15.149176 12.288 24.937412 23.883294 24.937412h2.439529a58.127059 58.127059 0 0 1 58.337883 57.825882c0 10.330353-5.029647 21.925647-5.089883 22.046118-5.993412 13.372235-1.385412 29.726118 10.752 38.159059l59.663059 33.219764 0.481883 0.180706c12.167529 5.330824 28.882824 1.897412 38.00847-7.920941 8.252235-8.914824 30.599529-27.316706 47.104-27.316706 17.799529 0 40.809412 20.660706 47.435294 27.888941a34.544941 34.544941 0 0 0 37.978353 8.131765l61.771294-33.822118 0.602353-0.421647c12.107294-8.372706 16.685176-24.756706 10.691765-38.189176-0.843294-2.017882-5.059765-12.559059-5.059765-21.985882a58.127059 58.127059 0 0 1 58.307765-57.825883h2.379294c11.655529 0 21.052235-9.788235 23.94353-24.967529 1.174588-6.415059 5.059765-28.732235 5.059764-47.013647 0.030118-17.468235-3.463529-38.550588-4.818823-46.049883z m-34.334118 83.215059c-48.218353 3.975529-85.835294 44.513882-85.835294 92.641883 0 13.221647 4.035765 25.901176 6.656 32.798117l-52.254118 28.672a164.291765 164.291765 0 0 0-20.510117-17.92c-18.281412-13.462588-35.779765-20.299294-51.983059-20.299294-16.052706 0-33.400471 6.686118-51.561412 19.907765a165.104941 165.104941 0 0 0-20.449882 17.618823l-50.296471-27.919059c2.650353-6.836706 6.716235-19.486118 6.716235-32.828235 0-48.128-37.647059-88.666353-85.865411-92.641882-1.264941-7.408941-3.824941-24.214588-3.824941-37.165177 0-13.040941 2.56-29.816471 3.824941-37.195294 48.218353-3.945412 85.865412-44.483765 85.865411-92.672 0-13.161412-4.035765-25.871059-6.656-32.737882l53.579295-29.214118c2.650353 2.650353 10.270118 9.968941 20.449882 17.197177 17.92 12.649412 34.996706 19.034353 50.718118 19.034353 15.570824 0 32.496941-6.294588 50.266353-18.703059 9.938824-6.896941 17.287529-13.824 20.359529-16.865883l51.621647 28.491295a96.075294 96.075294 0 0 0-6.656 32.768c0 48.158118 37.616941 88.696471 85.805176 92.672 1.264941 7.439059 3.855059 24.304941 3.855059 37.195294 0.030118 12.980706-2.56 29.756235-3.824941 37.165176z" fill="#E52CA3" p-id="2578"></path><path d="M768.421647 211.546353c-47.525647 0-86.166588 38.369882-86.166588 85.534118s38.640941 85.534118 86.166588 85.534117c47.495529 0 86.136471-38.369882 86.136471-85.534117s-38.640941-85.534118-86.136471-85.534118z m0 135.951059c-28.009412 0-50.808471-22.618353-50.808471-50.416941 0-27.798588 22.799059-50.386824 50.808471-50.386824s50.778353 22.618353 50.778353 50.386824c0 27.798588-22.799059 50.416941-50.778353 50.416941z" fill="#E52CA3" p-id="2579"></path></svg>