<?xml version="1.0" standalone="no"?><!DOCTYPE svg PUBLIC "-//W3C//DTD SVG 1.1//EN" "http://www.w3.org/Graphics/SVG/1.1/DTD/svg11.dtd"><svg t="1507532703268" class="icon" style="" viewBox="0 0 1024 1024" version="1.1" xmlns="http://www.w3.org/2000/svg" p-id="2875" xmlns:xlink="http://www.w3.org/1999/xlink" width="34" height="34"><defs><style type="text/css"></style></defs><path d="M219.587765 926.509176c-4.608 0-9.246118-0.512-13.793883-1.475764a60.958118 60.958118 0 0 1-40.05647-28.310588 71.770353 71.770353 0 0 1-10.209883-36.864V216.515765a71.68 71.68 0 0 1 71.619765-71.619765h527.23953a71.710118 71.710118 0 0 1 71.619764 71.619765V861.063529a62.132706 62.132706 0 0 1-37.104941 55.838118 65.656471 65.656471 0 0 1-70.144-9.487059l-56.952471-48.188235a34.032941 34.032941 0 0 0-40.56847-2.740706l-82.82353 52.796235a73.185882 73.185882 0 0 1-80.805647-1.234823l-76.830117-52.374588a34.514824 34.514824 0 0 0-38.851765 0.180705l-84.329412 58.699295c-11.203765 7.830588-24.545882 11.956706-38.00847 11.956705z m7.559529-742.460235A32.527059 32.527059 0 0 0 194.650353 216.545882v643.343059c0 5.872941 1.596235 11.685647 4.608 16.715294a22.226824 22.226824 0 0 0 14.697412 10.179765c7.288471 1.566118 15.058824 0.030118 21.232941-4.306824l84.329412-58.669176a73.788235 73.788235 0 0 1 83.275294-0.391529l76.830117 52.374588a34.334118 34.334118 0 0 0 37.737412 0.572235l82.82353-52.796235a73.035294 73.035294 0 0 1 86.889411 5.842823l56.952471 48.188236a26.895059 26.895059 0 0 0 28.672 3.734588c4.186353-1.897412 13.854118-7.68 14.155294-20.690824V216.515765a32.527059 32.527059 0 0 0-32.466823-32.496941H227.147294z" fill="#E52CA3" p-id="2876"></path><path d="M660.540235 483.207529a18.582588 18.582588 0 1 0 0-37.165176h-145.679059l123.904-123.904a18.582588 18.582588 0 0 0-26.292705-26.292706l-121.675295 121.675294-121.675294-121.675294a18.582588 18.582588 0 0 0-26.292706 26.292706l123.904 123.904H321.054118a18.582588 18.582588 0 1 0 0 37.165176h151.16047v101.978353H321.054118a18.582588 18.582588 0 1 0 0 37.165177h151.16047v100.352a18.582588 18.582588 0 1 0 37.165177 0v-100.352h151.16047a18.582588 18.582588 0 1 0 0-37.165177h-151.16047v-101.978353h151.16047z" fill="#E52CA3" p-id="2877"></path><path d="M773.421176 77.522824H426.255059c-9.095529 0-16.504471 7.408941-16.504471 16.474352s7.408941 16.474353 16.504471 16.474353H773.421176a92.280471 92.280471 0 0 1 92.190118 92.190118v347.166118a16.474353 16.474353 0 0 0 32.948706 0V202.691765a125.289412 125.289412 0 0 0-125.138824-125.168941z" fill="#E52CA3" p-id="2878"></path></svg>