<?xml version="1.0" standalone="no"?><!DOCTYPE svg PUBLIC "-//W3C//DTD SVG 1.1//EN" "http://www.w3.org/Graphics/SVG/1.1/DTD/svg11.dtd"><svg t="1507532699278" class="icon" style="" viewBox="0 0 1024 1024" version="1.1" xmlns="http://www.w3.org/2000/svg" p-id="2750" xmlns:xlink="http://www.w3.org/1999/xlink" width="34" height="34"><defs><style type="text/css"></style></defs><path d="M609.671529 534.588235c80.052706-37.044706 135.740235-118.061176 135.740236-211.907764 0-128.692706-104.719059-233.411765-233.411765-233.411765s-233.411765 104.719059-233.411765 233.411765c0 93.846588 55.687529 174.863059 135.710118 211.907764-147.456 42.496-255.668706 178.567529-255.668706 339.516236 0 16.143059 1.264941 32.918588 3.734588 49.844705a18.492235 18.492235 0 0 0 18.341647 15.510589 18.492235 18.492235 0 0 0 14.004706-6.384941 18.191059 18.191059 0 0 0 4.276706-14.516706 315.904 315.904 0 0 1 108.272941-285.214118 317.560471 317.560471 0 0 1 256.993883-71.198118c125.349647 20.208941 228.171294 116.796235 255.879529 240.429177a321.957647 321.957647 0 0 1 4.848941 116.103529 17.950118 17.950118 0 0 0 4.276706 14.336 18.642824 18.642824 0 0 0 32.376471-9.095529c2.469647-16.896 3.734588-33.671529 3.734588-49.844706-0.030118-160.918588-108.212706-296.990118-255.698824-339.486118zM512 520.734118a198.264471 198.264471 0 0 1-198.053647-198.053647A198.294588 198.294588 0 0 1 512 124.596706a198.324706 198.324706 0 0 1 198.083765 198.083765A198.324706 198.324706 0 0 1 512 520.734118z" fill="#E52CA3" p-id="2751"></path><path d="M692.525176 120.259765c30.448941 20.389647 101.586824 79.631059 104.568471 189.319529 0.090353 1.264941 8.794353 126.644706-87.582118 200.07153l-26.413176 20.148705 30.418823 13.342118c2.379294 1.084235 59.120941 26.804706 103.333648 77.763765a18.883765 18.883765 0 0 0 14.305882 6.445176 19.877647 19.877647 0 0 0 11.926588-4.005647 19.275294 19.275294 0 0 0 7.619765-13.552941 20.118588 20.118588 0 0 0-4.818824-15.179294c-30.479059-34.966588-65.505882-59.090824-89.961411-73.336471 90.533647-87.823059 80.353882-212.570353 80.233411-213.775059-3.403294-127.608471-86.106353-196.126118-121.524706-219.648a19.877647 19.877647 0 0 0-16.082823-2.68047 19.757176 19.757176 0 0 0-12.468706 10.209882 19.516235 19.516235 0 0 0 6.445176 24.877177z" fill="#E52CA3" p-id="2752"></path></svg>