<?xml version="1.0" standalone="no"?><!DOCTYPE svg PUBLIC "-//W3C//DTD SVG 1.1//EN" "http://www.w3.org/Graphics/SVG/1.1/DTD/svg11.dtd"><svg class="icon" width="32px" height="32.00px" viewBox="0 0 1024 1024" version="1.1" xmlns="http://www.w3.org/2000/svg"><path fill="#ffffff" d="M691.2 599.04v238.933333h-68.266667v-97.28H546.133333v97.28h-68.266666v-238.933333h68.266666V682.666667h75.093334v-83.626667h69.973333zM901.12 837.973333l-49.493333-80.213333h-13.653334v80.213333h-68.266666v-238.933333h97.28c30.72 0 52.906667 6.826667 69.973333 18.773333 15.36 11.946667 23.893333 32.426667 23.893333 61.44 0 18.773333-3.413333 34.133333-10.24 46.08-6.826667 11.946667-17.066667 20.48-32.426666 25.6l64.853333 87.04h-81.92z m-63.146667-129.706666h17.066667c13.653333 0 23.893333-1.706667 29.013333-6.826667 5.12-5.12 8.533333-11.946667 8.533334-23.893333 0-5.12 0-10.24-1.706667-13.653334-1.706667-3.413333-3.413333-6.826667-6.826667-8.533333-3.413333-1.706667-6.826667-3.413333-11.946666-5.12-5.12 0-10.24-1.706667-17.066667-1.706667h-17.066667v59.733334z"  /><path fill="#ffffff" d="M512 520.533333c-133.12 0-240.64-107.52-240.64-240.64S378.88 39.253333 512 39.253333s240.64 107.52 240.64 240.64S645.12 520.533333 512 520.533333z m0-430.08c-104.106667 0-189.44 85.333333-189.44 189.44s85.333333 189.44 189.44 189.44 189.44-85.333333 189.44-189.44S616.106667 90.453333 512 90.453333z"  /><path fill="#ffffff" d="M518.826667 972.8H59.733333c-13.653333 0-25.6-11.946667-25.6-25.6 0-262.826667 215.04-477.866667 477.866667-477.866667 13.653333 0 25.6 11.946667 25.6 25.6s-11.946667 25.6-25.6 25.6C285.013333 520.533333 98.986667 698.026667 85.333333 921.6h433.493334c13.653333 0 25.6 11.946667 25.6 25.6s-11.946667 25.6-25.6 25.6z"  /></svg>