<?xml version="1.0" standalone="no"?><!DOCTYPE svg PUBLIC "-//W3C//DTD SVG 1.1//EN" "http://www.w3.org/Graphics/SVG/1.1/DTD/svg11.dtd"><svg t="1509603114812" class="icon" style="" viewBox="0 0 1024 1024" version="1.1" xmlns="http://www.w3.org/2000/svg" p-id="7149" xmlns:xlink="http://www.w3.org/1999/xlink" width="18" height="18"><defs><style type="text/css"></style></defs><path d="M872.675556 115.712H151.324444c-34.702222 0-62.976 28.216889-62.976 62.919111v520.760889c0 34.702222 28.216889 62.919111 62.976 62.919111h297.699556v114.517333H351.687111a22.869333 22.869333 0 0 0 0 45.738667h320.568889a22.869333 22.869333 0 0 0 0-45.738667h-97.336889V762.311111h297.699556c34.702222 0 62.976-28.216889 62.976-62.919111V178.631111c0-34.702222-28.216889-62.919111-62.919111-62.919111z" fill="#E52CA3" p-id="7150"></path><path d="M151.324444 161.450667h721.351112c9.500444 0 17.180444 7.68 17.180444 17.180444v417.792H134.144V178.631111c0-9.443556 7.736889-17.180444 17.180444-17.180444z" fill="#FFFFFF" p-id="7151"></path><path d="M529.180444 876.828444h-34.360888v-114.460444h34.360888v114.460444zM872.675556 716.629333H151.324444a17.180444 17.180444 0 0 1-17.180444-17.180444v-57.230222h755.712v57.230222a17.237333 17.237333 0 0 1-17.180444 17.180444z" fill="#FFF3FB" p-id="7152"></path></svg>