<?xml version="1.0" standalone="no"?><!DOCTYPE svg PUBLIC "-//W3C//DTD SVG 1.1//EN" "http://www.w3.org/Graphics/SVG/1.1/DTD/svg11.dtd"><svg t="1509603125188" class="icon" style="" viewBox="0 0 1024 1024" version="1.1" xmlns="http://www.w3.org/2000/svg" p-id="7455" xmlns:xlink="http://www.w3.org/1999/xlink" width="18" height="18"><defs><style type="text/css"></style></defs><path d="M821.020444 149.390222A118.101333 118.101333 0 0 0 702.919111 31.288889H321.024a118.101333 118.101333 0 0 0-118.101333 118.101333v725.674667c0 65.194667 52.849778 118.101333 118.101333 118.101333h381.895111a118.044444 118.044444 0 0 0 118.101333-118.101333V149.390222" fill="#E52CA3" p-id="7456"></path><path d="M245.930667 216.405333h532.138666v569.628445H245.930667V216.405333" fill="#FFFFFF" p-id="7457"></path><path d="M321.080889 74.296889h381.838222c41.528889 0 75.150222 33.621333 75.150222 75.150222v24.007111H245.930667v-24.007111c0-41.472 33.621333-75.150222 75.150222-75.150222M702.919111 950.215111H321.080889a75.093333 75.093333 0 0 1-75.150222-75.150222v-47.160889h532.138666v47.160889c0 41.472-33.621333 75.150222-75.150222 75.150222" fill="#FFF3FB" p-id="7458"></path><path d="M513.592889 854.812444l0 0" fill="#E52CA3" p-id="7459"></path></svg>