<?xml version="1.0" standalone="no"?><!DOCTYPE svg PUBLIC "-//W3C//DTD SVG 1.1//EN" "http://www.w3.org/Graphics/SVG/1.1/DTD/svg11.dtd"><svg t="1509603120916" class="icon" style="" viewBox="0 0 1024 1024" version="1.1" xmlns="http://www.w3.org/2000/svg" p-id="7323" xmlns:xlink="http://www.w3.org/1999/xlink" width="18" height="18"><defs><style type="text/css"></style></defs><path d="M812.088889 144.668444H396.686222a96.768 96.768 0 0 0-94.151111-75.093333c-46.023111 0-84.48 32.369778-94.208 75.491556A112.241778 112.241778 0 0 0 99.555556 257.080889v559.672889c0 61.952 50.403556 112.412444 112.355555 112.412444h600.177778a112.469333 112.469333 0 0 0 112.355555-112.412444V257.080889a112.526222 112.526222 0 0 0-112.355555-112.412445z" fill="#E52CA3" p-id="7324"></path><path d="M251.960889 166.343111a50.631111 50.631111 0 0 1 101.262222 0v518.087111a50.631111 50.631111 0 0 1-101.262222 0V166.343111z" fill="#FFF3FB" p-id="7325"></path><path d="M878.307556 816.753778c0 36.522667-29.696 66.275556-66.218667 66.275555H211.911111a66.275556 66.275556 0 0 1-66.218667-66.275555V257.080889c0-34.474667 26.453333-62.464 60.074667-65.649778v492.942222c0 53.361778 43.406222 96.768 96.768 96.768s96.768-43.406222 96.768-96.768V190.805333h412.785778c36.522667 0 66.218667 29.696 66.218667 66.275556v559.672889z" fill="#FFFFFF" p-id="7326"></path><path d="M567.409778 373.304889m-33.336889 0a33.336889 33.336889 0 1 0 66.673778 0 33.336889 33.336889 0 1 0-66.673778 0Z" fill="#E52CA3" p-id="7327"></path><path d="M703.374222 373.304889m-33.336889 0a33.336889 33.336889 0 1 0 66.673778 0 33.336889 33.336889 0 1 0-66.673778 0Z" fill="#E52CA3" p-id="7328"></path><path d="M567.409778 478.890667m-33.336889 0a33.336889 33.336889 0 1 0 66.673778 0 33.336889 33.336889 0 1 0-66.673778 0Z" fill="#E52CA3" p-id="7329"></path><path d="M703.374222 478.890667m-33.336889 0a33.336889 33.336889 0 1 0 66.673778 0 33.336889 33.336889 0 1 0-66.673778 0Z" fill="#E52CA3" p-id="7330"></path><path d="M567.409778 596.252444m-33.336889 0a33.336889 33.336889 0 1 0 66.673778 0 33.336889 33.336889 0 1 0-66.673778 0Z" fill="#E52CA3" p-id="7331"></path><path d="M703.374222 596.252444m-33.336889 0a33.336889 33.336889 0 1 0 66.673778 0 33.336889 33.336889 0 1 0-66.673778 0Z" fill="#E52CA3" p-id="7332"></path></svg>