<?xml version="1.0" encoding="UTF-8"?>
<svg width="68px" height="69px" viewBox="0 0 68 69" version="1.1" xmlns="http://www.w3.org/2000/svg" xmlns:xlink="http://www.w3.org/1999/xlink">
    <title>jixiaomiantan</title>
    <g id="HR助手" stroke="none" stroke-width="1" fill="none" fill-rule="evenodd">
        <g id="jixiaomiantan" transform="translate(0.000000, 0.857143)">
            <rect id="Rectangle" fill="#F5F9FF" x="0" y="0" width="68" height="68" rx="34"></rect>
            <g id="wodejixiao" transform="translate(23.000000, 19.000000)" fill="#018DF1" fill-rule="nonzero">
                <path d="M12.8795563,14.9248748 C17.3557845,14.9248748 21,11.5859766 21,7.4624374 C21,3.33889816 17.3557845,0 12.8795563,0 C8.40332805,0 4.75911252,3.33889816 4.75911252,7.4624374 C4.75911252,11.5859766 8.3866878,14.9248748 12.8795563,14.9248748 L12.8795563,14.9248748 Z M15.0760697,23.3889816 C15.0760697,20.7178631 16.3240887,18.3472454 18.2543582,16.8113523 C16.6236133,16.0434057 14.7931854,15.6260434 12.862916,15.6260434 C5.75752773,15.6260434 0,21.4023372 0,28.5308848 C0,29.015025 0.0332805071,29.5158598 0.0832012678,30 L18.3042789,30 C16.340729,28.4641068 15.0760697,26.0767947 15.0760697,23.3889816 Z" id="Shape"></path>
                <path d="M23.25,16.5 C19.5281955,16.5 16.5,19.5281955 16.5,23.25 C16.5,26.9718045 19.5281955,30 23.25,30 C26.9718045,30 30,26.9718045 30,23.25 C30,19.5112782 26.9887218,16.5 23.25,16.5 Z M27.5300752,24.4342105 L26.0921053,24.4342105 L26.0921053,22.4548872 L23.3684211,25.2969925 L21.3045113,23.1654135 L19.1729323,25.3477444 L18.2932331,24.4511278 L21.3890977,21.3890977 L23.5206767,23.6221805 L25.5845865,21.7105263 L23.6390977,21.7105263 L23.6390977,20.4078947 L27.5469925,20.4078947 L27.5469925,24.4342105 L27.5300752,24.4342105 Z" id="Shape"></path>
            </g>
        </g>
    </g>
</svg>