<?xml version="1.0" standalone="no"?><!DOCTYPE svg PUBLIC "-//W3C//DTD SVG 1.1//EN" "http://www.w3.org/Graphics/SVG/1.1/DTD/svg11.dtd"><svg class="icon" width="200px" height="200.00px" viewBox="0 0 1024 1024" version="1.1" xmlns="http://www.w3.org/2000/svg"><path d="M224 591.4c4.4 3.9 9.8 5.8 15.2 5.8 6.3 0 12.7-2.6 17.2-7.7l107.3-120.7 120.7 107.3c4.8 4.3 11.3 6.4 17.7 5.7 6.4-0.7 12.3-4 16.1-9.3l134.3-183.2 8.2 65.2c1.5 11.6 11.4 20.1 22.8 20.1 1 0 1.9-0.1 2.9-0.2 12.6-1.6 21.5-13.1 19.9-25.7L691 326.3c0-0.2-0.1-0.4-0.1-0.5v-0.2c-0.1-0.7-0.2-1.4-0.4-2.1-0.7-2.9-2-5.6-3.8-8-0.4-0.6-0.9-1.1-1.4-1.7l-0.1-0.1-1.5-1.5-0.2-0.2c-0.5-0.4-1-0.9-1.5-1.2-0.1 0-0.1-0.1-0.2-0.1s-0.1-0.1-0.2-0.1c-0.5-0.4-1-0.7-1.5-1-0.2-0.1-0.3-0.2-0.5-0.3-0.5-0.3-1-0.5-1.5-0.8-0.2-0.1-0.5-0.2-0.7-0.3-0.4-0.2-0.9-0.4-1.3-0.5l-0.9-0.3c-0.4-0.1-0.8-0.3-1.3-0.4-0.3-0.1-0.6-0.1-0.8-0.2-0.5-0.1-0.9-0.2-1.4-0.3-0.2 0-0.4-0.1-0.6-0.1-0.6-0.1-1.1-0.1-1.7-0.1H666.7c-0.5 0-1 0.1-1.5 0.1l-122.6 15.3c-12.6 1.6-21.5 13.1-19.9 25.7 1.6 12.6 13.1 21.5 25.7 19.9l69.6-8.7L496.1 525l-119-105.8c-9.5-8.4-24-7.6-32.4 1.9L222.1 559c-8.4 9.5-7.6 24 1.9 32.4z" fill="#353637" /><path d="M844.4 579.2V206.6c0-54.9-44.7-99.6-99.6-99.6H193.3c-54.9 0-99.6 44.7-99.6 99.6v612.8c0 54.9 44.7 99.6 99.6 99.6h476.5c23.1 9.9 48.4 15.3 75 15.3 105.6 0 191.5-85.9 191.5-191.5 0-69.2-36.8-129.9-91.9-163.6zM139.7 819.4V206.6c0-29.6 24.1-53.6 53.6-53.6h551.5c29.6 0 53.6 24.1 53.6 53.6v352.3c-4.2-1.2-8.4-2.3-12.7-3.2-0.3-0.1-0.5-0.1-0.8-0.2-0.9-0.2-1.7-0.4-2.6-0.5-0.8-0.2-1.7-0.3-2.5-0.5-0.7-0.1-1.3-0.2-2-0.4-1.1-0.2-2.3-0.4-3.4-0.6-0.4-0.1-0.8-0.1-1.2-0.2-1.3-0.2-2.5-0.4-3.8-0.5-0.2 0-0.3 0-0.5-0.1-1.5-0.2-3-0.4-4.5-0.5-0.2 0-0.4 0-0.6-0.1-1.3-0.1-2.7-0.3-4-0.4-0.2 0-0.5 0-0.7-0.1l-4.5-0.3h-0.4c-1.3-0.1-2.6-0.1-4-0.2h-1.1c-1.5 0-2.9-0.1-4.4-0.1-89.8 0-165.3 62.1-185.9 145.5H239.3c-12.7 0-23 10.3-23 23s10.3 23 23 23h314c0 1.6 0 3.1 0.1 4.7 0 1 0.1 2 0.1 3 0 0.5 0 1.1 0.1 1.6 0.1 1.5 0.2 2.9 0.3 4.3v0.1c3.2 44.8 21.9 85.4 50.7 116.5H193.3c-29.5 0.3-53.6-23.8-53.6-53.3z m605.1 68.9c-19.5 0-38.2-3.9-55.2-10.9l-5.2-2.4c-50-22.8-82.8-72-85.1-126.4v-1c-0.1-1.6-0.1-3.2-0.1-4.8 0-80.2 65.3-145.5 145.5-145.5 1.4 0 2.7 0 4.1 0.1 0.5 0 0.9 0 1.4 0.1 0.9 0 1.8 0.1 2.7 0.1 0.5 0 1.1 0.1 1.6 0.1 0.8 0.1 1.7 0.1 2.5 0.2 0.5 0 1 0.1 1.6 0.1 0.9 0.1 1.7 0.2 2.6 0.3 0.4 0 0.9 0.1 1.3 0.2 1.1 0.1 2.2 0.3 3.3 0.4 0.2 0 0.4 0 0.5 0.1 15.4 2.3 30.4 7.1 44.6 14.4l4.5 2.3c44.6 24.9 74.9 72.6 74.9 127.2 0.1 80.1-65.2 145.4-145.5 145.4z" fill="#353637" /><path d="M789.9 695.9l-60.4 60.4-29.7-29.7c-9-9-23.5-9-32.5 0s-9 23.5 0 32.5l46 46c4.5 4.5 10.4 6.7 16.2 6.7 5.9 0 11.8-2.2 16.2-6.7l76.6-76.6c9-9 9-23.5 0-32.5s-23.5-9.1-32.4-0.1z" fill="#353637" /></svg>