<?xml version="1.0" encoding="UTF-8"?>
<svg width="68px" height="69px" viewBox="0 0 68 69" version="1.1" xmlns="http://www.w3.org/2000/svg" xmlns:xlink="http://www.w3.org/1999/xlink">
    <title>mianshiruzhi</title>
    <g id="HR助手" stroke="none" stroke-width="1" fill="none" fill-rule="evenodd">
        <g id="mianshiruzhi" transform="translate(0.000000, 0.714286)">
            <rect id="Rectangle" fill="#F5F9FF" x="0" y="0" width="68" height="68" rx="34"></rect>
            <g id="miantanqingdan" transform="translate(19.000000, 19.000000)" fill="#018DF1" fill-rule="nonzero">
                <path d="M14.7869791,15.75 L25.2692708,15.75 C25.9479004,15.7490271 26.6129461,15.9388441 27.1875,16.2975 L27.1875,1.5 C27.1875,0.671572876 26.5112634,0 25.6770833,0 L1.51041667,0 C0.676236577,0 0,0.671572876 0,1.5 L0,28.5 C0,29.3284271 0.676236577,30 1.51041667,30 L11.871875,30 C11.5198527,29.4924943 11.3303324,28.8912577 11.328125,28.275 L11.328125,18.975 C11.3897133,17.1373268 12.9363402,15.6952679 14.7869791,15.75 Z M4.53125,4.5 L21.9010417,4.5 C22.3181317,4.5 22.65625,4.83578644 22.65625,5.25000001 C22.65625,5.66421357 22.3181317,6 21.9010417,6 L4.53125,6 C4.11415996,6 3.77604167,5.66421357 3.77604167,5.25000001 C3.77604167,4.83578644 4.11415996,4.5 4.53125,4.5 Z M9.06250001,25.5 L4.53125,25.5 C4.11415998,25.5 3.77604172,25.1642135 3.77604172,24.75 C3.77604172,24.3357864 4.11415998,24 4.53125,24 L9.06250001,24 C9.47959006,24 9.81770834,24.3357864 9.81770834,24.75 C9.81770834,25.1642136 9.47959006,25.5 9.06250001,25.5 L9.06250001,25.5 Z M9.06250001,19.5 L4.53125,19.5 C4.11415996,19.5 3.77604167,19.1642136 3.77604167,18.75 C3.77604167,18.3357864 4.11415996,18 4.53125,18 L9.06250001,18 C9.47959006,18 9.81770834,18.3357864 9.81770834,18.75 C9.81770834,19.1642136 9.47959006,19.5 9.06250001,19.5 Z M4.53125,12.75 C4.11421826,12.7499181 3.77619094,12.4141557 3.77619094,12 C3.77619094,11.5858443 4.11421826,11.2500819 4.53125,11.25 L21.9010417,11.25 C22.3180734,11.2500819 22.6561007,11.5858443 22.6561007,12 C22.6561007,12.4141557 22.3180734,12.7499181 21.9010417,12.75 L4.53125,12.75 Z" id="Shape"></path>
                <path d="M27.0652174,21.5621106 L27.0652174,18.6525558 C27.0707279,18.5754881 27.0707279,18.4980939 27.0652174,18.4210263 C26.8863975,17.4964026 26.0980651,16.8434602 25.2016304,16.8774959 L15.0179348,16.8774959 C14.0315164,16.8247025 13.1879643,17.6157259 13.125,18.6525558 L13.125,28.2224442 C13.1879643,29.2592741 14.0315164,30.0502975 15.0179348,29.9975041 L25.2016304,29.9975041 C26.0980651,30.0315398 26.8863975,29.3785974 27.0652174,28.4539737 C27.0711019,28.3743448 27.0711019,28.2943555 27.0652174,28.2147265 L27.0652174,26.7175021 L30,25.0659245 L27.0652174,21.5621106 Z M16.4266304,21.2379692 C16.4266304,20.598618 16.9193605,20.0803215 17.5271739,20.0803215 C18.1349873,20.0803215 18.6277174,20.598618 18.6277174,21.2379692 C18.6277174,21.8773204 18.1349873,22.395617 17.5271739,22.395617 C16.9193605,22.395617 16.4266304,21.8773204 16.4266304,21.2379692 L16.4266304,21.2379692 Z M20.4619565,27.6822085 C18.4359119,27.6822085 16.7934783,25.9545533 16.7934783,23.8233826 C16.7934783,23.3971485 17.121965,23.0516174 17.5271739,23.0516174 C17.9323828,23.0516174 18.2608696,23.3971485 18.2608696,23.8233826 C18.2608696,25.102085 19.2463298,26.1386782 20.4619565,26.1386782 C21.6775833,26.1386782 22.6630435,25.102085 22.6630435,23.8233826 C22.6630435,23.3971485 22.9915302,23.0516174 23.3967391,23.0516174 C23.8019481,23.0516174 24.1304348,23.3971485 24.1304348,23.8233826 C24.1304348,25.9545533 22.4880011,27.6822085 20.4619565,27.6822085 Z M23.3967391,22.395617 C22.9516109,22.395617 22.5503128,22.1135652 22.3799695,21.6809818 C22.2096263,21.2483985 22.3037842,20.7504736 22.6185374,20.4193886 C22.9332906,20.0883037 23.406654,19.9892603 23.8178989,20.1684421 C24.2291438,20.347624 24.4972826,20.7697444 24.4972826,21.2379692 C24.4972826,21.8773204 24.0045525,22.395617 23.3967391,22.395617 L23.3967391,22.395617 Z" id="Shape"></path>
            </g>
        </g>
    </g>
</svg>