<?xml version="1.0" encoding="UTF-8"?>
<svg width="34px" height="34px" viewBox="0 0 34 34" version="1.1" xmlns="http://www.w3.org/2000/svg" xmlns:xlink="http://www.w3.org/1999/xlink">
    <title>PDF</title>
    <g id="HR助手" stroke="none" stroke-width="1" fill="none" fill-rule="evenodd">
        <g id="PDF">
            <circle id="Oval" fill="#F1F3F4" cx="17" cy="17" r="17"></circle>
            <path d="M11.3749999,14.75 L22.6249996,14.75 C22.823912,14.75 23.0146774,14.8290176 23.1553297,14.9696699 C23.295982,15.1103222 23.3749999,15.3010876 23.3749999,15.5 L23.3749999,21.875 C23.3749999,22.2892136 23.0392131,22.625 22.6249996,22.625 L11.3749999,22.625 L11.3749999,24.5 C11.3749999,24.5994562 11.4145087,24.6948389 11.4848349,24.765165 C11.555161,24.8354912 11.6505437,24.875 11.7499999,24.875 L24.4999995,24.875 C24.7071063,24.875 24.8749999,24.7071068 24.8749999,24.5 L24.8749999,13.4285 L24.6976245,13.25 L22.4734996,13.25 C21.5216369,13.25 20.7499996,12.4783628 20.7499996,11.5265 L20.7499996,9.27724999 L20.5984997,9.125 L11.7499999,9.125 C11.6505437,9.125 11.555161,9.16450881 11.4848349,9.23483496 C11.4145087,9.3051611 11.3749999,9.40054381 11.3749999,9.49999999 L11.3749999,14.75 Z M10.2499999,22.625 L8.74999999,22.625 C8.33578643,22.625 8,22.2892136 8,21.875 L8,15.5 C8,15.3010876 8.07901763,15.1103222 8.21966991,14.9696699 C8.36032219,14.8290176 8.55108762,14.75 8.74999999,14.75 L10.2499999,14.75 L10.2499999,9.5 C10.2499999,8.67157287 10.9215728,8 11.7499999,8 L21.0668746,8 L26,12.965 L26,24.5 C26,25.3284271 25.3284266,26 24.5,26 L11.7499999,26 C10.9215728,26 10.2499999,25.3284271 10.2499999,24.5 L10.2499999,22.625 L10.2499999,22.625 Z M9.66312495,16.3055 L9.66312495,21.125 L10.4528749,21.125 L10.4528749,19.2755 L11.6476249,19.2755 C12.8221249,19.2755 13.4093748,18.776 13.4093748,17.78375 C13.4093748,16.79825 12.8221249,16.3055 11.6611249,16.3055 L9.66312495,16.3055 Z M10.4528749,16.9805 L11.6003749,16.9805 C11.9446249,16.9805 12.2011249,17.04125 12.3631249,17.1695 C12.5251249,17.291 12.6128749,17.4935 12.6128749,17.78375 C12.6128749,18.074 12.5318749,18.28325 12.3698749,18.4115 C12.2078749,18.533 11.9513749,18.6005 11.6003749,18.6005 L10.4528749,18.6005 L10.4528749,16.9805 L10.4528749,16.9805 Z M14.0843748,16.3055 L14.0843748,21.125 L14.8741248,21.125 L14.8741248,19.2755 L16.0688748,19.2755 C17.2433747,19.2755 17.8306247,18.776 17.8306247,17.78375 C17.8306247,16.79825 17.2433747,16.3055 16.0823748,16.3055 L14.0843748,16.3055 Z M14.8741248,16.9805 L16.0216248,16.9805 C16.3658748,16.9805 16.6223748,17.04125 16.7843748,17.1695 C16.9463747,17.291 17.0341247,17.4935 17.0341247,17.78375 C17.0341247,18.074 16.9531247,18.28325 16.7911247,18.4115 C16.6291248,18.533 16.3726248,18.6005 16.0216248,18.6005 L14.8741248,18.6005 L14.8741248,16.9805 L14.8741248,16.9805 Z M23,16 L23,22 L9,22 L9,16 L23,16 Z" id="Shape" fill="#3B3B3B" fill-rule="nonzero"></path>
            <text font-family="FZLTCHJW--GB1-0, FZLanTingHeiS-B-GB" font-size="4.8" font-weight="normal" fill="#FFFFFF">
                <tspan x="10" y="20">PDF</tspan>
            </text>
        </g>
    </g>
</svg>