<?xml version="1.0" standalone="no"?><!DOCTYPE svg PUBLIC "-//W3C//DTD SVG 1.1//EN" "http://www.w3.org/Graphics/SVG/1.1/DTD/svg11.dtd"><svg class="icon" width="200px" height="200.00px" viewBox="0 0 1024 1024" version="1.1" xmlns="http://www.w3.org/2000/svg"><path d="M630 687.9h-87.4l-102.7 36.2 1.3 7.8H630zM204 363.9h198v44H204zM204 472h198v44H204zM929.5 249.6l-26.8-25.5c-15.1-14.3-35.2-22.2-56.5-22.2s-41.4 7.9-56.5 22.2L494.1 504.2l-84.6 212.3L634 637.3l295.6-280.1c15.2-14.3 23.5-33.5 23.5-53.8 0-20.4-8.4-39.5-23.6-53.8zM608.8 598.8l-120.1 42.4 45.1-112.9 3.9-3.7 74.7 70.8-3.6 3.4z m36.3-34.3l-74.9-70.8 195.2-184.9 74.8 70.8-195.1 184.9z m252.2-239.1l-24.4 23.2-74.7-70.8 24.1-22.9c6.4-6 15-9.4 24.1-9.4s17.7 3.3 24.1 9.4l26.8 25.5c6.4 6 9.9 14.1 9.9 22.6 0 8.4-3.5 16.4-9.9 22.4zM204 732h179.1l17.6-44H204z"  /><path d="M716.6 854c0 17.7-15.2 32-34 32H150.7c-18.7 0-34-14.4-34-32V170c0-17.7 15.2-32 34-32h338v158c0 41.9 35.9 76 80 76h22.6l46.5-44h-68.9c-18.7 0-34-14.4-34-32V173.6l128.6 130 32.4-30.6L520.5 94H151c-44.1 0-80 34.1-80 76v684c0 41.9 35.9 76 80 76h531.6c44.1 0 80-34.1 80-76V554.9l-46 43.5V854z"  /><path d="M443.8 579.9H204v44h222.2z"  /></svg>