<?xml version="1.0" encoding="UTF-8"?>
<svg width="68px" height="69px" viewBox="0 0 68 69" version="1.1" xmlns="http://www.w3.org/2000/svg" xmlns:xlink="http://www.w3.org/1999/xlink">
    <title>richang1VS1</title>
    <g id="HR助手" stroke="none" stroke-width="1" fill="none" fill-rule="evenodd">
        <g id="richang1VS1" transform="translate(0.000000, 0.428571)">
            <rect id="Rectangle" fill="#F5F9FF" x="0" y="0" width="68" height="68" rx="34"></rect>
            <g id="mianshifudao" transform="translate(16.000000, 16.000000)" fill="#018DF1" fill-rule="nonzero">
                <path d="M24.3286048,6.34916286 C24.3344386,3.78615149 22.7957225,1.47201216 20.43,0.485913221 C18.0653875,-0.498614771 15.3404045,0.0407387694 13.5291176,1.85179892 C11.7166755,3.66405117 11.1731377,6.38905773 12.1515882,8.75799227 C13.1288257,11.1264802 15.4378329,12.6719532 18,12.6724724 C21.474,12.6343547 24.2830588,9.82740663 24.3286048,6.34916286 L24.3286048,6.34916286 Z M20.1118235,12.6724724 L15.8876471,12.6724724 C14.4164602,12.6859118 12.9685353,13.0411427 11.6581765,13.710122 C13.8772508,14.3080404 16.0090893,15.1921709 18,16.3402461 C19.9907445,15.1922131 22.1224024,14.3080837 24.3412941,13.710122 C23.0307756,13.0410631 21.5826601,12.6858299 20.1112941,12.6724724 L20.1118235,12.6724724 Z M33.8876471,19.0090173 C32.7244497,19.0098942 31.7821209,19.9534103 31.7827056,21.1166107 L31.7827056,25.3450328 C31.8437138,26.4651341 32.7695942,27.3422005 33.8913529,27.3425083 C35.0131117,27.3422005 35.9389921,26.4651341 36,25.3450328 L36,21.1166107 C35.9970825,19.9521763 35.0526115,19.0095972 33.8881765,19.0090173 L33.8876471,19.0090173 Z M4.21676469,25.3450328 L4.21676469,21.1166107 C4.1557568,19.9965094 3.22987636,19.119443 2.10811764,19.1191352 C0.986563412,19.1197241 0.0609966679,19.9967135 0,21.1166107 L0,25.3450328 C0.0609966679,26.46493 0.986563412,27.3419194 2.10811764,27.3425083 C3.22987636,27.3422005 4.1557568,26.4651341 4.21676469,25.3450328 L4.21676469,25.3450328 Z M2.11122705,15.8373037 L2.11122705,16.8945415 C4.43911764,16.8982474 6.32488233,18.7861344 6.32858822,21.1166107 L6.32858822,25.3450328 C6.318,27.670215 4.43382353,29.5506901 2.11122705,29.5538666 L2.11122705,30.6111045 C2.10806792,30.8978798 2.22136829,31.1736854 2.4252562,31.3753782 C2.62914412,31.577071 2.90615949,31.687379 3.19288236,31.6810483 C8.59447058,31.6810483 12.9208235,33.3894642 16.9697647,35.9745882 L16.9697647,18.2027212 C12.8498823,15.8690684 8.50447058,14.7864187 3.19288236,14.7864187 C2.90877245,14.7773734 2.63317056,14.8840985 2.42924977,15.0821307 C2.22532897,15.2801629 2.11057591,15.5525206 2.11122705,15.8367743 L2.11122705,15.8373037 Z M29.6714118,21.1166107 C29.6751177,18.7861344 31.5614118,16.8982474 33.8881765,16.8945415 L33.8881765,15.8373037 C33.8878567,15.5534674 33.7728511,15.2818053 33.5692787,15.0840146 C33.3657062,14.8862238 33.0908446,14.7790914 32.8071176,14.7869482 C27.4701176,14.7869482 23.0987647,15.8695979 19.0302353,18.2032506 L19.0302353,36 C23.0791765,33.4217584 27.3991765,31.7069895 32.8071176,31.7069895 C33.3905134,31.706405 33.8630573,31.233149 33.8627647,30.6497516 L33.8627647,29.5538666 C31.5502941,29.536396 29.682,27.6601561 29.6714118,25.3450328 L29.6714118,21.1166107 L29.6714118,21.1166107 Z" id="Shape"></path>
            </g>
        </g>
    </g>
</svg>