<?xml version="1.0" encoding="UTF-8"?>
<svg width="68px" height="69px" viewBox="0 0 68 69" version="1.1" xmlns="http://www.w3.org/2000/svg" xmlns:xlink="http://www.w3.org/1999/xlink">
    <title>shiyongqi</title>
    <defs>
        <filter x="0.0%" y="0.0%" width="100.0%" height="100.0%" filterUnits="objectBoundingBox" id="filter-1">
            <feGaussianBlur stdDeviation="0" in="SourceGraphic"></feGaussianBlur>
        </filter>
        <filter x="0.0%" y="0.0%" width="100.0%" height="100.0%" filterUnits="objectBoundingBox" id="filter-2">
            <feGaussianBlur stdDeviation="0" in="SourceGraphic"></feGaussianBlur>
        </filter>
    </defs>
    <g id="HR助手" stroke="none" stroke-width="1" fill="none" fill-rule="evenodd">
        <g id="shiyongqi" transform="translate(0.000000, 0.142857)">
            <rect id="Rectangle" fill="#F5F9FF" x="0" y="0" width="68" height="68" rx="34"></rect>
            <g id="shiyongqiguanli" transform="translate(18.000000, 19.000000)" fill="#018DF1" fill-rule="nonzero">
                <path d="M4.9975139,7.78417029 C4.9975139,12.0833755 8.80939878,15.5683406 13.5119065,15.5683406 C18.2144143,15.5683406 22.0262992,12.0833755 22.0262992,7.78417029 C22.0262992,3.48496508 18.2144143,0 13.5119065,0 C8.80939878,0 4.9975139,3.48539772 4.9975139,7.78417029 Z M13.299246,27.9897602 C12.5245263,26.3319763 12.1069028,24.5275098 12.0738803,22.6952021 C12.0217149,20.8532319 12.443896,19.0290728 13.299246,17.4006439 C5.95133186,17.5772077 0,21.4596482 0,26.2249075 L0,27.9897602 L13.299246,27.9897602 L13.299246,27.9897602 Z M23.1690605,13.4062857 C18.2934817,13.4076051 14.3423167,17.39426 14.3439517,22.3103758 C14.3455878,27.2264917 18.2990426,31.210508 23.1746213,31.2088593 C28.0488916,31.2075395 31.9994025,27.2228635 31.9997296,22.3083969 C32.0373472,17.4298817 28.1457163,13.444546 23.3074281,13.4062857 C23.2622869,13.4060384 23.2171457,13.4060384 23.1716773,13.4062857 L23.1690605,13.4062857 Z M23.1690605,28.9838258 C19.5122946,28.9838258 16.5476942,25.9949065 16.5476942,22.3074074 C16.5476942,18.620238 19.5119675,15.6309889 23.1690605,15.6309889 C26.8261534,15.6309889 29.7904868,18.6199082 29.7904868,22.3074074 C29.8058009,25.9790747 26.8663879,28.967994 23.2253234,28.9838258 L23.1690605,28.9838258 Z" id="Shape" filter="url(#filter-1)"></path>
                <path d="M22.8293295,16.8781909 L22.8293295,22.4415478 L19.0113667,26.4151219 C21.1500371,28.5780606 24.5690576,28.5271763 26.6472924,26.3013388 C27.6135267,25.2663167 28.160325,23.884218 28.1744775,22.4411945 C28.1928118,19.3877794 25.8293757,16.8969191 22.895537,16.8778375 C22.8734678,16.8778375 22.8513987,16.8778375 22.8293295,16.8781909 L22.8293295,16.8781909 Z" id="Path" filter="url(#filter-2)"></path>
            </g>
        </g>
    </g>
</svg>