<?xml version="1.0" encoding="UTF-8"?>
<svg width="68px" height="68px" viewBox="0 0 68 68" version="1.1" xmlns="http://www.w3.org/2000/svg" xmlns:xlink="http://www.w3.org/1999/xlink">
    <title>shuzhifansi</title>
    <g id="HR助手" stroke="none" stroke-width="1" fill="none" fill-rule="evenodd">
        <g id="shuzhifansi" transform="translate(0.000000, -0.000000)">
            <rect id="Rectangle" fill="#F5F9FF" x="0" y="0" width="68" height="68" rx="34"></rect>
            <g id="mianshiruzhi" transform="translate(19.000000, 19.000000)" fill="#018DF1" fill-rule="nonzero">
                <path d="M27.5085179,29.2682927 L2.50425894,29.2682927 C1.12436115,29.2682927 0,28.1579764 0,26.7856754 L0,12.6260242 C0,12.3141376 0.166098816,12.0272019 0.434412256,11.8525454 C0.702725728,11.6778889 1.04770016,11.6654135 1.32879046,11.7901681 L15,17.9156208 L28.6712096,11.8026436 C28.9650767,11.6778889 29.2972743,11.7028398 29.5655877,11.8650209 C29.8339012,12.0272019 30,12.326613 30,12.6384996 L30,26.7981509 C30,28.1579764 28.8884157,29.2682927 27.5085179,29.2682927 Z" id="Path"></path>
                <path d="M25.4171409,13.902439 C24.8980009,13.902439 24.4928185,13.4823104 24.4928185,12.9730635 L24.4928185,2.16429913 C24.4928185,2.02425624 24.2902273,1.87148218 24.0243263,1.87148218 L4.51225909,1.87148218 C4.2463581,1.87148218 4.04376689,2.02425624 4.04376686,2.16429913 L4.04376686,12.9730635 C4.04376686,13.4950415 3.62592248,13.902439 3.11944442,13.902439 C2.60030442,13.902439 2.19512195,13.4823104 2.19512195,12.9730635 L2.19512195,2.16429913 C2.19512195,0.967569033 3.23340196,0 4.51225909,0 L24.0243263,0 C25.3031834,0 26.3414634,0.967569002 26.3414634,2.16429913 L26.3414634,12.9730635 C26.3414634,13.4823104 25.923619,13.902439 25.4171409,13.902439 Z" id="Path"></path>
                <path d="M22.4593659,7.5570865 L16.0693958,7.5570865 C15.5401256,7.5570865 15.1270366,7.17206512 15.1270366,6.70537253 C15.1270366,6.22701263 15.5530346,5.85365854 16.0693958,5.85365854 L22.4593659,5.85365854 C22.9886361,5.85365854 23.4017251,6.23867992 23.4017251,6.70537253 C23.4146341,7.17206512 22.9886362,7.5570865 22.4593659,7.5570865 L22.4593659,7.5570865 Z M22.4593659,10.9756098 L8.25943238,10.9756098 C7.73016213,10.9756098 7.31707317,10.5905884 7.31707317,10.1238958 C7.31707317,9.64553588 7.74307117,9.27218179 8.25943238,9.27218179 L22.4722749,9.27218179 C23.0015452,9.27218179 23.4146341,9.65720317 23.4146341,10.1238958 C23.4146341,10.5905884 22.9886362,10.9756098 22.4593659,10.9756098 Z" id="Shape"></path>
            </g>
        </g>
    </g>
</svg>