<?xml version="1.0" standalone="no"?><!DOCTYPE svg PUBLIC "-//W3C//DTD SVG 1.1//EN" "http://www.w3.org/Graphics/SVG/1.1/DTD/svg11.dtd"><svg class="icon" width="200px" height="200.00px" viewBox="0 0 1024 1024" version="1.1" xmlns="http://www.w3.org/2000/svg"><path d="M128 512a32 32 0 0 1 32-32h362.67a32 32 0 1 1 0 64H160a32 32 0 0 1-32-32z m245.33 96H160a32 32 0 0 0 0 64h213.33a32 32 0 0 0 0-64z m629.34 138.67C1002.67 881.94 892.6 992 757.33 992a244.05 244.05 0 0 1-37.89-3.24 118 118 0 0 1-26.11 3.24h-576A117.48 117.48 0 0 1 0 874.67v-640a117.49 117.49 0 0 1 117.33-117.34H192V64a32 32 0 0 1 64 0v53.33h298.67V64a32 32 0 0 1 64 0v53.33h74.66a117.49 117.49 0 0 1 117.34 117.34v272.68c109.68 24.44 192 122.38 192 239.32zM64 234.67v74.66h682.67v-74.66a53.39 53.39 0 0 0-53.34-53.34h-576A53.39 53.39 0 0 0 64 234.67zM592.67 928C543.26 883.09 512 818.54 512 746.67c0-131.67 104.36-239.15 234.67-244.8V373.33H64v501.34A53.39 53.39 0 0 0 117.33 928z m346-181.33c0-100-81.36-181.34-181.34-181.34S576 646.69 576 746.67 657.35 928 757.33 928s181.34-81.35 181.34-181.33z m-96-10.67h-53.34v-53.33a32 32 0 0 0-64 0V768a32 32 0 0 0 32 32h85.34a32 32 0 1 0 0-64z" /></svg>