<?xml version="1.0" encoding="UTF-8"?>
<svg width="68px" height="68px" viewBox="0 0 68 68" version="1.1" xmlns="http://www.w3.org/2000/svg" xmlns:xlink="http://www.w3.org/1999/xlink">
    <title>yuedulihui</title>
    <g id="HR助手" stroke="none" stroke-width="1" fill="none" fill-rule="evenodd">
        <g id="yuedulihui">
            <rect id="Rectangle" fill="#F5F9FF" x="0" y="0" width="68" height="68" rx="34"></rect>
            <g id="chuangjianhuiyi" transform="translate(16.000000, 20.000000)" fill="#018DF1" fill-rule="nonzero">
                <path d="M25.8428481,10.1840556 C26.4142038,10.5391077 26.941609,10.9367661 27.4470389,11.3628287 C27.6155156,11.5048495 27.8389303,11.5794105 28.0586825,11.5368042 C30.1683032,11.1497974 31.7505188,9.31417788 31.6662805,7.13770831 C31.5820422,5.03224918 29.8496626,3.2356854 27.6887663,3.02265412 C27.3737882,2.99069943 27.0661352,2.99424995 26.7694698,3.02265412 C26.3263029,3.06526038 26.0479502,3.50552502 26.1614888,3.92093601 C26.340953,4.57423193 26.4398415,5.25593202 26.4398415,5.96248576 C26.4398415,7.40399741 26.0406251,8.75319551 25.3557308,9.92486754 C25.5168824,10.002979 25.6853591,10.0881915 25.8428481,10.1840556 L25.8428481,10.1840556 Z M30.5345569,11.8172954 C30.2671917,12.0019225 29.9851764,12.161696 29.6848485,12.2966158 C29.2636568,12.4883439 29.1464557,13.0244726 29.4321335,13.3795248 C30.7579716,15.0234161 31.6955808,16.9406976 32.1533978,19 L34.7281607,19 C35.5192685,19 36.1162618,18.3040978 35.980748,17.5478368 C35.5485688,15.1228307 34.0579166,13.0386747 31.9922462,11.753386 C31.5454168,11.4728948 30.9703986,11.5155011 30.5345569,11.8172954 L30.5345569,11.8172954 Z M7.94403429,11.5368042 C8.16378646,11.5758599 8.38720116,11.5048495 8.55567782,11.3628287 C9.0611078,10.9367661 9.588513,10.5391077 10.1598686,10.1840556 C10.3173577,10.084641 10.4821718,10.002979 10.6506485,9.92841806 C9.96209168,8.75674603 9.56653778,7.40754793 9.56653778,5.96603628 C9.56653778,5.25948254 9.66542625,4.57423193 9.84489052,3.92448653 C9.95842914,3.50907554 9.67641386,3.0688109 9.23690953,3.02620464 C8.93658157,2.99780047 8.63259108,2.99424995 8.31761297,3.02620464 C6.15671669,3.23923592 4.42067458,5.0357997 4.34009879,7.14125884 C4.25219792,9.3177284 5.83441351,11.1497974 7.94403429,11.5368042 L7.94403429,11.5368042 Z M1.27455609,19 L3.84931895,19 C4.30713596,16.9406976 5.2447452,15.0234161 6.57058326,13.3795248 C6.85626108,13.0244726 6.73905992,12.4883439 6.31786827,12.2966158 C6.02120285,12.161696 5.73552504,12.0019225 5.4681599,11.8172954 C5.03231811,11.5155011 4.45729994,11.4728948 4.006808,11.753386 C1.94113765,13.0386747 0.450485468,15.1228307 0.0183062104,17.5478368 C-0.113545089,18.3040978 0.483448293,19 1.27455609,19 Z" id="Shape"></path>
                <path d="M12,6 C12,8.14359348 13.1435935,10.1243556 15,11.1961524 C16.8564064,12.2679492 19.1435936,12.2679492 21,11.1961524 C22.8564065,10.1243556 24,8.14359348 24,6 C24,2.68629147 21.3137085,0 18,0 C14.6862915,0 12,2.68629147 12,6 L12,6 Z" id="Path"></path>
                <path d="M6.18126335,20.2121991 C6.00183094,21.2337251 6.82941715,22.166268 7.89502594,22.166268 L28.3613061,22.166268 C29.4269149,22.166268 30.2545011,21.2337251 30.0750687,20.2121991 C29.4964907,16.8806719 27.4568203,14.015416 24.6298444,12.25711 C24.0183094,11.8762623 23.2346659,11.9367708 22.6451022,12.3460931 C21.3707659,13.2323648 19.8144644,13.7520261 18.1299969,13.7520261 C16.4455294,13.7520261 14.889228,13.2288054 13.6148917,12.3460931 C13.0216662,11.9332115 12.2416845,11.872703 11.6301495,12.25711 C8.79951175,14.015416 6.75984132,16.8806719 6.18126335,20.2121991 Z M34.5022887,25.0813543 L1.50137321,25.0813543 C0.677448886,25.0813543 0,25.7362699 0,26.5406772 C0,27.3415251 0.673787,28 1.50137321,28 L34.4986268,28 C35.3225511,28 36,27.3450844 36,26.5406772 C36,25.7362699 35.326213,25.0813543 34.5022887,25.0813543 Z" id="Shape"></path>
            </g>
        </g>
    </g>
</svg>