<?xml version="1.0" encoding="UTF-8"?>
<svg width="68px" height="69px" viewBox="0 0 68 69" version="1.1" xmlns="http://www.w3.org/2000/svg" xmlns:xlink="http://www.w3.org/1999/xlink">
    <title>zhuanzhengjinshen</title>
    <g id="HR助手" stroke="none" stroke-width="1" fill="none" fill-rule="evenodd">
        <g id="zhuanzhengjinshen" transform="translate(0.000000, 0.571429)">
            <rect id="Rectangle" fill="#F5F9FF" x="0" y="0" width="68" height="68" rx="34"></rect>
            <g id="wodejixiao" transform="translate(19.000000, 19.000000)" fill-rule="nonzero">
                <path d="M12.8795563,14.9248748 C17.3557845,14.9248748 21,11.5859766 21,7.4624374 C21,3.33889816 17.3557845,0 12.8795563,0 C8.40332805,0 4.75911252,3.33889816 4.75911252,7.4624374 C4.75911252,11.5859766 8.3866878,14.9248748 12.8795563,14.9248748 L12.8795563,14.9248748 Z M15.0760697,23.3889816 C15.0760697,20.7178631 16.3240887,18.3472454 18.2543582,16.8113523 C16.6236133,16.0434057 14.7931854,15.6260434 12.862916,15.6260434 C5.75752773,15.6260434 0,21.4023372 0,28.5308848 C0,29.015025 0.0332805071,29.5158598 0.0832012678,30 L18.3042789,30 C16.340729,28.4641068 15.0760697,26.0767947 15.0760697,23.3889816 Z" id="Shape" fill="#018DF1"></path>
                <path d="M23.25,16.5 C19.5281955,16.5 16.5,19.5281955 16.5,23.25 C16.5,26.9718045 19.5281955,30 23.25,30 C26.9718045,30 30,26.9718045 30,23.25 C30,19.5112782 26.9887218,16.5 23.25,16.5 Z" id="Shape" fill="#018DF1"></path>
                <path d="M26.5125,21.1765379 C26.2199719,20.8919677 25.7475281,20.8919677 25.455,21.1765379 L22.8,23.7673853 L21.21,22.2114089 C21.0197561,22.0252359 20.7424695,21.9525271 20.4825915,22.0206711 C20.2227134,22.0888152 20.0197256,22.2874594 19.9500915,22.5417764 C19.8804574,22.7960935 19.9547561,23.0674465 20.145,23.2536195 L22.2675,25.3233616 C22.408325,25.4623078 22.6000219,25.5404631 22.8,25.5404631 C22.9999782,25.5404631 23.191675,25.4623078 23.3325,25.3233616 L26.5125,22.2114089 C26.8032927,21.9251405 26.8032927,21.4628063 26.5125,21.1765379 L26.5125,21.1765379 Z" id="Path" fill="#FFFFFF"></path>
            </g>
        </g>
    </g>
</svg>