<?xml version="1.0" encoding="UTF-8"?>
<svg width="68px" height="69px" viewBox="0 0 68 69" version="1.1" xmlns="http://www.w3.org/2000/svg" xmlns:xlink="http://www.w3.org/1999/xlink">
    <title>zhuzhirencaipandian</title>
    <g id="HR助手" stroke="none" stroke-width="1" fill="none" fill-rule="evenodd">
        <g id="zhuzhirencaipandian" transform="translate(0.000000, 0.285714)">
            <rect id="Rectangle" fill="#F5F9FF" x="0" y="0" width="68" height="68" rx="34"></rect>
            <g id="rencaipandian-2" transform="translate(19.000000, 17.000000)" fill="#018DF1" fill-rule="nonzero">
                <path d="M5.85365854,8.04878049 C5.85365854,12.4939992 9.45722031,16.097561 13.902439,16.097561 C18.3476577,16.097561 21.9512195,12.4939992 21.9512195,8.04878049 C21.9512195,3.60356177 18.3476577,0 13.902439,0 C9.45722031,0 5.85365854,3.60356177 5.85365854,8.04878049 Z" id="Path"></path>
                <path d="M15.880814,26.1197715 C15.8812131,22.4506691 18.387163,19.2559438 21.9512195,18.3808788 C19.614466,16.93146 16.9284482,16.142377 14.1788659,16.097561 C7.37107371,16.097561 0,21.6155014 0,28.4217058 C0,30.8865348 0,33.6585366 14.179797,33.6585366 C16.7643745,33.6585366 18.8806371,33.5654539 20.6095854,33.4006976 C17.7328184,32.1209111 15.8794013,29.2677521 15.8798829,26.1197715 L15.880814,26.1197715 Z" id="Path"></path>
                <path d="M22.6828538,22.5096877 C24.796391,22.5126393 26.5090158,24.2252641 26.5119674,26.3388013 C26.5102809,28.4532353 24.7972865,30.1672572 22.6828538,30.1702114 C20.5690176,30.1676814 18.8559272,28.4549335 18.8529747,26.3410978 C18.8559272,24.2272622 20.5690176,22.5145142 22.6828538,22.5119843 M22.6829268,20.4878049 C19.4500405,20.4878049 16.8292683,23.1085771 16.8292683,26.3414634 C16.8292683,29.5743498 19.4500405,32.195122 22.6829268,32.195122 C25.9158132,32.195122 28.5365854,29.5743498 28.5365854,26.3414634 C28.5365854,23.1085771 25.9158132,20.4878049 22.6829268,20.4878049 L22.6829268,20.4878049 Z" id="Shape"></path>
                <path d="M29.3383913,32.9268293 C29.1631477,32.9269285 28.9951229,32.8569988 28.8716558,32.7325796 L26.5351782,30.397853 C26.2768918,30.1394505 26.2768918,29.7204972 26.5351782,29.4620946 C26.7934646,29.203692 27.2122296,29.203692 27.470516,29.4620946 L29.8051267,31.7968212 C29.9949816,31.9857243 30.0521455,32.2705673 29.9498861,32.5181462 C29.8476268,32.7657251 29.6061544,32.9271093 29.3383913,32.9268293 L29.3383913,32.9268293 Z" id="Path" stroke="#018DF1"></path>
            </g>
        </g>
    </g>
</svg>